<?xml version="1.0" standalone="no"?>
<!DOCTYPE svg PUBLIC "-//W3C//DTD SVG 20010904//EN"
 "http://www.w3.org/TR/2001/REC-SVG-20010904/DTD/svg10.dtd">
<svg version="1.0" xmlns="http://www.w3.org/2000/svg"
 width="512.000000pt" height="512.000000pt" viewBox="0 0 512.000000 512.000000"
 preserveAspectRatio="xMidYMid meet">
<metadata>
Created by potrace 1.11, written by Peter Selinger 2001-2013
</metadata>
<g transform="translate(0.000000,512.000000) scale(0.100000,-0.100000)"
fill="#000000" stroke="none">
<path d="M195 5095 c-78 -32 -144 -100 -173 -178 l-22 -58 0 -2299 0 -2299 21
-58 c29 -78 104 -153 182 -182 l58 -21 2299 0 2299 0 58 21 c78 29 153 104
182 182 l21 58 0 2299 0 2299 -21 58 c-29 78 -104 153 -182 182 l-58 21 -2302
0 -2302 0 -60 -25z m2830 -654 c566 -65 914 -253 1070 -576 81 -167 114 -363
95 -566 -44 -465 -328 -760 -867 -899 -230 -60 -350 -72 -775 -77 l-388 -5 0
-502 c0 -632 10 -714 91 -817 69 -88 188 -127 409 -135 80 -3 160 -7 178 -10
l32 -5 0 -94 0 -95 -975 0 -976 0 3 98 3 97 90 7 c295 22 384 95 414 343 15
125 15 2595 0 2720 -19 158 -65 242 -153 285 -47 22 -186 50 -253 50 l-43 0 0
101 0 101 973 -5 c643 -3 1006 -8 1072 -16z"/>
<path d="M2217 4180 c-59 -18 -56 21 -57 -807 l0 -763 243 0 c278 0 402 14
540 60 126 43 190 81 272 164 83 84 134 179 167 313 32 127 32 390 1 514 -39
152 -113 284 -204 362 -98 84 -248 140 -425 157 -121 12 -498 12 -537 0z"/>
</g>
</svg>
